<?xml version="1.0" encoding="UTF-8"?>
<svg xmlns="http://www.w3.org/2000/svg" id="a" width="865.76" height="682.89" viewBox="0 0 865.76 682.89">
  <g>
    <polygon points="682.44 604.89 686.5 630.25 729.76 630.25 723.4 604.89 682.44 604.89" fill="#f6e574"></polygon>
    <path d="M729.75,630.82h-43.25c-.28,0-.52-.2-.56-.48l-4.07-25.37c-.03-.16,.02-.33,.13-.46,.11-.13,.27-.2,.43-.2h40.96c.26,0,.49,.18,.55,.43l6.36,25.37c.04,.17,0,.35-.1,.49-.11,.14-.27,.22-.45,.22Zm-42.77-1.14h42.04l-6.07-24.23h-39.85l3.88,24.23Z" fill="#002346"></path>
  </g>
  <g>
    <path d="M798.72,604.89h-245.85c-6.92,.04-12.56-5.54-12.6-12.46,0-.47,.02-.95,.07-1.42l15.58-148.08c.66-6.41,6.08-11.28,12.53-11.24h246.53c6.59,0,11.94,5.33,11.95,11.93,0,.43-.02,.85-.07,1.27l-15.7,148.74c-.65,6.38-6.02,11.24-12.44,11.25Z" fill="#f6e574"></path>
    <path d="M552.78,605.46c-3.47,0-6.73-1.34-9.2-3.78-2.49-2.46-3.87-5.74-3.89-9.24,0-.49,.02-.99,.07-1.48l15.58-148.08c.69-6.71,6.29-11.75,13.03-11.75h246.61c3.34,0,6.47,1.3,8.84,3.66,2.36,2.36,3.67,5.5,3.67,8.84,0,.44-.02,.89-.07,1.33l-15.7,148.74c-.69,6.69-6.28,11.75-13,11.76h-245.93Zm15.6-173.2c-6.16,0-11.27,4.6-11.9,10.73l-15.58,148.09c-.05,.45-.07,.9-.07,1.35,.02,3.2,1.28,6.19,3.55,8.44,2.26,2.23,5.24,3.45,8.41,3.45h245.93c6.14-.01,11.25-4.63,11.87-10.74l15.7-148.75c.04-.4,.06-.81,.06-1.21,0-3.04-1.19-5.89-3.34-8.04-2.15-2.14-5-3.32-8.03-3.32h-246.6Z" fill="#002346"></path>
  </g>
  <rect x="134.53" y="428.63" width="150.36" height="209.6" fill="#002346"></rect>
  <g>
    <path d="M241.6,421.8h45.12c4.02,0,7.28,3.26,7.28,7.28h0v16.76c0,4.02-3.26,7.28-7.28,7.28h-45.12v-31.33h0Z" fill="#f6e574"></path>
    <path d="M286.72,453.68h-45.12c-.31,0-.57-.25-.57-.57v-31.33c0-.35,.35-.63,.69-.56h45c4.33,0,7.85,3.52,7.85,7.85v16.76c0,4.33-3.52,7.85-7.85,7.85Zm-44.55-1.14h44.55c3.7,0,6.71-3.01,6.71-6.71v-16.76c0-3.7-3.01-6.71-6.71-6.71h-44.55v30.17Z" fill="#002346"></path>
  </g>
  <g>
    <path d="M246.28,421.8H126.43c-3.08,0-5.57,2.49-5.57,5.57h0v20.19c0,3.08,2.49,5.57,5.57,5.57h43.41v-2.77c0-2.56,2.08-4.64,4.64-4.64h45.4c2.56,0,4.64,2.08,4.64,4.64h0v2.77h21.77c3.08,0,5.57-2.49,5.57-5.57h0v-20.19c0-3.08-2.49-5.57-5.57-5.57h0Z" fill="#f6e574"></path>
    <path d="M246.28,453.69h-21.77c-.31,0-.57-.25-.57-.57v-2.77c0-2.24-1.82-4.07-4.07-4.07h-45.4c-2.24,0-4.07,1.83-4.07,4.07v2.77c0,.31-.25,.57-.57,.57h-43.41c-3.39,0-6.14-2.75-6.14-6.14v-20.18c0-3.39,2.75-6.14,6.14-6.14h119.86c3.39,0,6.14,2.75,6.14,6.14v20.18c0,3.39-2.75,6.14-6.14,6.14Zm-21.2-1.14h21.2c2.76,0,5-2.24,5-5v-20.18c0-2.76-2.24-5-5-5H126.43c-2.76,0-5,2.24-5,5v20.18c0,2.76,2.24,5,5,5h42.84v-2.2c0-2.87,2.33-5.21,5.21-5.21h45.4c2.87,0,5.21,2.33,5.21,5.21v2.2Z" fill="#002346"></path>
  </g>
  <circle cx="132.25" cy="436.61" r="3.42" fill="#002346"></circle>
  <g opacity=".2">
    <circle cx="132.25" cy="436.61" r="2.28"></circle>
  </g>
  <g>
    <path d="M239.32,433.19c0,1.26-1.02,2.28-2.28,2.28h-74.04c-1.26,0-2.28-1.02-2.28-2.28s1.02-2.28,2.28-2.28h74.04c1.26,0,2.28,1.02,2.28,2.28Z" fill="#fff"></path>
    <path d="M237.05,436.04h-74.04c-1.57,0-2.85-1.28-2.85-2.85s1.28-2.85,2.85-2.85h74.04c1.57,0,2.85,1.28,2.85,2.85s-1.28,2.85-2.85,2.85Zm-74.04-4.56c-.94,0-1.71,.77-1.71,1.71s.77,1.71,1.71,1.71h74.04c.94,0,1.71-.77,1.71-1.71s-.77-1.71-1.71-1.71h-74.04Z" fill="#002346"></path>
  </g>
  <g>
    <path d="M239.32,433.19c0,1.26-1.02,2.28-2.28,2.28h-58.09v-4.56h58.09c1.26,0,2.28,1.02,2.28,2.28Z" fill="#93a4fb"></path>
    <path d="M237.05,436.04h-58.66v-5.7h58.66c1.57,0,2.85,1.28,2.85,2.85s-1.28,2.85-2.85,2.85Zm-57.53-1.14h57.53c.94,0,1.71-.77,1.71-1.71s-.77-1.71-1.71-1.71h-57.53v3.42Z" fill="#002346"></path>
  </g>
  <g>
    <path d="M239.32,440.02c0,1.26-1.02,2.28-2.28,2.28h-74.04c-1.26,0-2.28-1.02-2.28-2.28s1.02-2.28,2.28-2.28h74.04c1.26,0,2.28,1.02,2.28,2.28Z" fill="#fff"></path>
    <path d="M237.05,442.87h-74.04c-1.57,0-2.85-1.28-2.85-2.85s1.28-2.85,2.85-2.85h74.04c1.57,0,2.85,1.28,2.85,2.85s-1.28,2.85-2.85,2.85Zm-74.04-4.56c-.94,0-1.71,.77-1.71,1.71s.77,1.71,1.71,1.71h74.04c.94,0,1.71-.77,1.71-1.71s-.77-1.71-1.71-1.71h-74.04Z" fill="#002346"></path>
  </g>
  <g>
    <path d="M239.32,440.02c0,1.26-1.02,2.28-2.28,2.28h-67.21v-4.56h67.21c1.26,0,2.28,1.02,2.28,2.28Z" fill="#e6e7e8"></path>
    <path d="M237.05,442.87h-67.78v-5.7h67.78c1.57,0,2.85,1.28,2.85,2.85s-1.28,2.85-2.85,2.85Zm-66.64-1.14h66.64c.94,0,1.71-.77,1.71-1.71s-.77-1.71-1.71-1.71h-66.64v3.42Z" fill="#002346"></path>
  </g>
  <g>
    <path d="M241.6,458.25h45.12c4.02,0,7.28,3.26,7.28,7.28h0v16.76c0,4.02-3.26,7.28-7.28,7.28h-45.12v-31.33h0Z" fill="#f6e574"></path>
    <path d="M286.72,490.13h-45.12c-.31,0-.57-.25-.57-.57v-31.33c0-.35,.35-.62,.69-.56h45c4.33,0,7.85,3.52,7.85,7.85v16.76c0,4.33-3.52,7.85-7.85,7.85Zm-44.55-1.14h44.55c3.7,0,6.71-3.01,6.71-6.71v-16.76c0-3.7-3.01-6.71-6.71-6.71h-44.55v30.18Z" fill="#002346"></path>
  </g>
  <g>
    <path d="M246.28,458.25H126.43c-3.08,0-5.57,2.49-5.57,5.57h0v20.19c0,3.08,2.49,5.57,5.57,5.57h43.41v-2.77c0-2.56,2.08-4.64,4.64-4.64h45.4c2.56,0,4.64,2.08,4.64,4.64h0v2.77h21.77c3.08,0,5.57-2.49,5.57-5.57h0v-20.19c0-3.08-2.49-5.57-5.57-5.57h0Z" fill="#f6e574"></path>
    <path d="M246.28,490.14h-21.77c-.31,0-.57-.25-.57-.57v-2.77c0-2.24-1.82-4.07-4.07-4.07h-45.4c-2.24,0-4.07,1.82-4.07,4.07v2.77c0,.31-.25,.57-.57,.57h-43.41c-3.39,0-6.14-2.75-6.14-6.14v-20.19c0-3.39,2.75-6.14,6.14-6.14h119.86c3.39,0,6.14,2.75,6.14,6.14v20.19c0,3.38-2.75,6.14-6.14,6.14Zm-21.2-1.14h21.2c2.76,0,5-2.24,5-5v-20.19c0-2.76-2.24-5-5-5H126.43c-2.76,0-5,2.24-5,5v20.19c0,2.76,2.24,5,5,5h42.84v-2.2c0-2.87,2.33-5.21,5.21-5.21h45.4c2.87,0,5.21,2.33,5.21,5.21v2.2Z" fill="#002346"></path>
  </g>
  <circle cx="132.25" cy="473.06" r="3.42" fill="#002346"></circle>
  <g opacity=".2">
    <circle cx="132.25" cy="473.06" r="2.28"></circle>
  </g>
  <g>
    <path d="M239.32,469.64c0,1.26-1.02,2.28-2.28,2.28h-74.04c-1.26,0-2.28-1.02-2.28-2.28s1.02-2.28,2.28-2.28h74.04c1.26,0,2.28,1.02,2.28,2.28Z" fill="#fff"></path>
    <path d="M237.05,472.49h-74.04c-1.57,0-2.85-1.28-2.85-2.85s1.28-2.85,2.85-2.85h74.04c1.57,0,2.85,1.28,2.85,2.85s-1.28,2.85-2.85,2.85Zm-74.04-4.56c-.94,0-1.71,.77-1.71,1.71s.77,1.71,1.71,1.71h74.04c.94,0,1.71-.77,1.71-1.71s-.77-1.71-1.71-1.71h-74.04Z" fill="#002346"></path>
  </g>
  <g>
    <path d="M239.32,469.64c0,1.26-1.02,2.28-2.28,2.28h-58.09v-4.56h58.09c1.26,0,2.28,1.02,2.28,2.28Z" fill="#93a4fb"></path>
    <path d="M237.05,472.49h-58.66v-5.7h58.66c1.57,0,2.85,1.28,2.85,2.85s-1.28,2.85-2.85,2.85Zm-57.53-1.14h57.53c.94,0,1.71-.77,1.71-1.71s-.77-1.71-1.71-1.71h-57.53v3.42Z" fill="#002346"></path>
  </g>
  <g>
    <path d="M239.32,476.47c0,1.26-1.02,2.28-2.28,2.28h-74.04c-1.26,0-2.28-1.02-2.28-2.28s1.02-2.28,2.28-2.28h74.04c1.26,0,2.28,1.02,2.28,2.28Z" fill="#fff"></path>
    <path d="M237.05,479.32h-74.04c-1.57,0-2.85-1.28-2.85-2.85s1.28-2.85,2.85-2.85h74.04c1.57,0,2.85,1.28,2.85,2.85s-1.28,2.85-2.85,2.85Zm-74.04-4.56c-.94,0-1.71,.77-1.71,1.71s.77,1.71,1.71,1.71h74.04c.94,0,1.71-.77,1.71-1.71s-.77-1.71-1.71-1.71h-74.04Z" fill="#002346"></path>
  </g>
  <g>
    <path d="M239.32,476.47c0,1.26-1.02,2.28-2.28,2.28h-67.21v-4.56h67.21c1.26,0,2.28,1.02,2.28,2.28Z" fill="#e6e7e8"></path>
    <path d="M237.05,479.32h-67.78v-5.7h67.78c1.57,0,2.85,1.28,2.85,2.85s-1.28,2.85-2.85,2.85Zm-66.64-1.14h66.64c.94,0,1.71-.77,1.71-1.71s-.77-1.71-1.71-1.71h-66.64v3.42Z" fill="#002346"></path>
  </g>
  <g>
    <path d="M241.6,493.56h45.12c4.02,0,7.28,3.26,7.28,7.28h0v16.76c0,4.02-3.26,7.28-7.28,7.28h-45.12v-31.33h0Z" fill="#f6e574"></path>
    <path d="M286.72,525.45h-45.12c-.31,0-.57-.25-.57-.57v-31.33c0-.35,.35-.62,.69-.56h45c4.33,0,7.85,3.52,7.85,7.85v16.76c0,4.33-3.52,7.85-7.85,7.85Zm-44.55-1.14h44.55c3.7,0,6.71-3.01,6.71-6.71v-16.76c0-3.7-3.01-6.71-6.71-6.71h-44.55v30.18Z" fill="#002346"></path>
  </g>
  <g>
    <path d="M246.28,493.56H126.43c-3.08,0-5.57,2.49-5.57,5.57h0v20.18c0,3.08,2.49,5.57,5.57,5.57h43.41v-2.77c0-2.56,2.08-4.64,4.64-4.64h45.4c2.56,0,4.64,2.08,4.64,4.64h0v2.77h21.77c3.08,0,5.57-2.49,5.57-5.57h0v-20.19c0-3.08-2.49-5.57-5.57-5.57Z" fill="#f6e574"></path>
    <path d="M246.28,525.46h-21.77c-.31,0-.57-.25-.57-.57v-2.77c0-2.24-1.82-4.07-4.07-4.07h-45.4c-2.24,0-4.07,1.83-4.07,4.07v2.77c0,.31-.25,.57-.57,.57h-43.41c-3.39,0-6.14-2.75-6.14-6.14v-20.18c0-3.39,2.75-6.14,6.14-6.14h119.86c3.39,0,6.14,2.75,6.14,6.14v20.18c0,3.39-2.75,6.14-6.14,6.14Zm-21.2-1.14h21.2c2.76,0,5-2.24,5-5v-20.18c0-2.76-2.24-5-5-5H126.43c-2.76,0-5,2.24-5,5v20.18c0,2.76,2.24,5,5,5h42.84v-2.2c0-2.87,2.33-5.21,5.21-5.21h45.4c2.87,0,5.21,2.33,5.21,5.21v2.2Z" fill="#002346"></path>
  </g>
  <circle cx="132.25" cy="508.37" r="3.42" fill="#002346"></circle>
  <g opacity=".2">
    <circle cx="132.25" cy="508.37" r="2.28"></circle>
  </g>
  <g>
    <path d="M239.32,504.95c0,1.26-1.02,2.28-2.28,2.28h-74.04c-1.26,0-2.28-1.02-2.28-2.28s1.02-2.28,2.28-2.28h74.04c1.26,0,2.28,1.02,2.28,2.28Z" fill="#fff"></path>
    <path d="M237.05,507.8h-74.04c-1.57,0-2.85-1.28-2.85-2.85s1.28-2.85,2.85-2.85h74.04c1.57,0,2.85,1.28,2.85,2.85s-1.28,2.85-2.85,2.85Zm-74.04-4.56c-.94,0-1.71,.77-1.71,1.71s.77,1.71,1.71,1.71h74.04c.94,0,1.71-.77,1.71-1.71s-.77-1.71-1.71-1.71h-74.04Z" fill="#002346"></path>
  </g>
  <g>
    <path d="M239.32,504.95c0,1.26-1.02,2.28-2.28,2.28h-58.09v-4.56h58.09c1.26,0,2.28,1.02,2.28,2.28Z" fill="#e6e7e8"></path>
    <path d="M237.05,507.8h-58.66v-5.69h58.66c1.57,0,2.85,1.28,2.85,2.85s-1.28,2.85-2.85,2.85Zm-57.53-1.14h57.53c.94,0,1.71-.77,1.71-1.71s-.77-1.71-1.71-1.71h-57.53v3.42Z" fill="#002346"></path>
  </g>
  <g>
    <path d="M239.32,511.79c0,1.26-1.02,2.28-2.28,2.28h-74.04c-1.26,0-2.28-1.02-2.28-2.28s1.02-2.28,2.28-2.28h74.04c1.26,0,2.28,1.02,2.28,2.28Z" fill="#fff"></path>
    <path d="M237.05,514.63h-74.04c-1.57,0-2.85-1.28-2.85-2.85s1.28-2.85,2.85-2.85h74.04c1.57,0,2.85,1.28,2.85,2.85s-1.28,2.85-2.85,2.85Zm-74.04-4.56c-.94,0-1.71,.77-1.71,1.71s.77,1.71,1.71,1.71h74.04c.94,0,1.71-.77,1.71-1.71s-.77-1.71-1.71-1.71h-74.04Z" fill="#002346"></path>
  </g>
  <g>
    <path d="M239.32,511.79c0,1.26-1.02,2.28-2.28,2.28h-67.21v-4.56h67.21c1.26,0,2.28,1.02,2.28,2.28Z" fill="#93a4fb"></path>
    <path d="M237.05,514.63h-67.78v-5.7h67.78c1.57,0,2.85,1.28,2.85,2.85s-1.28,2.85-2.85,2.85Zm-66.64-1.14h66.64c.94,0,1.71-.77,1.71-1.71s-.77-1.71-1.71-1.71h-66.64v3.42Z" fill="#002346"></path>
  </g>
  <g>
    <path d="M241.6,530.01h45.12c4.02,0,7.28,3.26,7.28,7.28h0v16.76c0,4.02-3.26,7.28-7.28,7.28h-45.12v-31.33h0Z" fill="#f6e574"></path>
    <path d="M286.72,561.9h-45.12c-.31,0-.57-.25-.57-.57v-31.33c0-.35,.35-.62,.68-.56h45.01c4.33,0,7.85,3.52,7.85,7.85v16.76c0,4.33-3.52,7.85-7.85,7.85Zm-44.55-1.14h44.55c3.7,0,6.71-3.01,6.71-6.71v-16.76c0-3.7-3.01-6.71-6.71-6.71h-44.55v30.18Z" fill="#002346"></path>
  </g>
  <g>
    <path d="M246.28,530.01H126.43c-3.08,0-5.57,2.49-5.57,5.57h0v20.18c0,3.08,2.49,5.57,5.57,5.57h43.41v-2.77c0-2.56,2.08-4.64,4.64-4.64h45.4c2.56,0,4.64,2.08,4.64,4.64h0v2.77h21.77c3.08,0,5.57-2.49,5.57-5.57h0v-20.19c0-3.08-2.49-5.57-5.57-5.57Z" fill="#f6e574"></path>
    <path d="M246.28,561.91h-21.77c-.31,0-.57-.25-.57-.57v-2.77c0-2.24-1.82-4.07-4.07-4.07h-45.4c-2.24,0-4.07,1.82-4.07,4.07v2.77c0,.31-.25,.57-.57,.57h-43.41c-3.39,0-6.14-2.75-6.14-6.14v-20.19c0-3.39,2.75-6.14,6.14-6.14h119.86c3.39,0,6.14,2.75,6.14,6.14v20.19c0,3.39-2.75,6.14-6.14,6.14Zm-21.2-1.14h21.2c2.76,0,5-2.24,5-5v-20.19c0-2.76-2.24-5-5-5H126.43c-2.76,0-5,2.24-5,5v20.19c0,2.76,2.24,5,5,5h42.84v-2.2c0-2.87,2.33-5.21,5.21-5.21h45.4c2.87,0,5.21,2.33,5.21,5.21v2.2Z" fill="#002346"></path>
  </g>
  <circle cx="132.25" cy="544.82" r="3.42" fill="#002346"></circle>
  <g opacity=".2">
    <circle cx="132.25" cy="544.82" r="2.28"></circle>
  </g>
  <g>
    <path d="M239.32,541.4c0,1.26-1.02,2.28-2.28,2.28h-74.04c-1.26,0-2.28-1.02-2.28-2.28s1.02-2.28,2.28-2.28h74.04c1.26,0,2.28,1.02,2.28,2.28Z" fill="#fff"></path>
    <path d="M237.05,544.25h-74.04c-1.57,0-2.85-1.28-2.85-2.85s1.28-2.85,2.85-2.85h74.04c1.57,0,2.85,1.28,2.85,2.85s-1.28,2.85-2.85,2.85Zm-74.04-4.56c-.94,0-1.71,.77-1.71,1.71s.77,1.71,1.71,1.71h74.04c.94,0,1.71-.77,1.71-1.71s-.77-1.71-1.71-1.71h-74.04Z" fill="#002346"></path>
  </g>
  <g>
    <path d="M239.32,541.4c0,1.26-1.02,2.28-2.28,2.28h-58.09v-4.56h58.09c1.26,0,2.28,1.02,2.28,2.28Z" fill="#93a4fb"></path>
    <path d="M237.05,544.25h-58.66v-5.7h58.66c1.57,0,2.85,1.28,2.85,2.85s-1.28,2.85-2.85,2.85Zm-57.53-1.14h57.53c.94,0,1.71-.77,1.71-1.71s-.77-1.71-1.71-1.71h-57.53v3.42Z" fill="#002346"></path>
  </g>
  <g>
    <path d="M239.32,548.24c0,1.26-1.02,2.28-2.28,2.28h-74.04c-1.26,0-2.28-1.02-2.28-2.28s1.02-2.28,2.28-2.28h74.04c1.26,0,2.28,1.02,2.28,2.28Z" fill="#fff"></path>
    <path d="M237.05,551.09h-74.04c-1.57,0-2.85-1.28-2.85-2.85s1.28-2.85,2.85-2.85h74.04c1.57,0,2.85,1.28,2.85,2.85s-1.28,2.85-2.85,2.85Zm-74.04-4.56c-.94,0-1.71,.77-1.71,1.71s.77,1.71,1.71,1.71h74.04c.94,0,1.71-.77,1.71-1.71s-.77-1.71-1.71-1.71h-74.04Z" fill="#002346"></path>
  </g>
  <g>
    <path d="M239.32,548.24c0,1.26-1.02,2.28-2.28,2.28h-67.21v-4.56h67.21c1.26,0,2.28,1.02,2.28,2.28Z" fill="#e6e7e8"></path>
    <path d="M237.05,551.09h-67.78v-5.69h67.78c1.57,0,2.85,1.28,2.85,2.85s-1.28,2.85-2.85,2.85Zm-66.64-1.14h66.64c.94,0,1.71-.77,1.71-1.71s-.77-1.71-1.71-1.71h-66.64v3.42Z" fill="#002346"></path>
  </g>
  <g>
    <path d="M241.6,566.46h45.12c4.02,0,7.28,3.26,7.28,7.28h0v16.76c0,4.02-3.26,7.28-7.28,7.28h-45.12v-31.33h0Z" fill="#f6e574"></path>
    <path d="M286.72,598.35h-45.12c-.31,0-.57-.25-.57-.57v-31.33c0-.35,.35-.63,.68-.56h45c4.33,0,7.85,3.52,7.85,7.85v16.76c0,4.33-3.52,7.85-7.85,7.85Zm-44.55-1.14h44.55c3.7,0,6.71-3.01,6.71-6.71v-16.76c0-3.7-3.01-6.71-6.71-6.71h-44.55v30.17Z" fill="#002346"></path>
  </g>
  <g>
    <path d="M246.28,566.46H126.43c-3.08,0-5.57,2.49-5.57,5.57h0v20.18c0,3.08,2.49,5.57,5.57,5.57h43.41v-2.77c0-2.56,2.08-4.64,4.64-4.64h45.4c2.56,0,4.64,2.08,4.64,4.64h0v2.77h21.77c3.08,0,5.57-2.49,5.57-5.57h0v-20.19c0-3.08-2.49-5.57-5.57-5.57Z" fill="#f6e574"></path>
    <path d="M246.28,598.36h-21.77c-.31,0-.57-.25-.57-.57v-2.77c0-2.24-1.82-4.07-4.07-4.07h-45.4c-2.24,0-4.07,1.83-4.07,4.07v2.77c0,.31-.25,.57-.57,.57h-43.41c-3.39,0-6.14-2.75-6.14-6.14v-20.18c0-3.39,2.75-6.14,6.14-6.14h119.86c3.39,0,6.14,2.75,6.14,6.14v20.18c0,3.39-2.75,6.14-6.14,6.14Zm-21.2-1.14h21.2c2.76,0,5-2.24,5-5v-20.18c0-2.76-2.24-5-5-5H126.43c-2.76,0-5,2.24-5,5v20.18c0,2.76,2.24,5,5,5h42.84v-2.2c0-2.87,2.33-5.21,5.21-5.21h45.4c2.87,0,5.21,2.33,5.21,5.21v2.2Z" fill="#002346"></path>
  </g>
  <circle cx="132.25" cy="581.27" r="3.42" fill="#002346"></circle>
  <g opacity=".2">
    <circle cx="132.25" cy="581.27" r="2.28"></circle>
  </g>
  <g>
    <path d="M239.32,577.86c0,1.26-1.02,2.28-2.28,2.28h-74.04c-1.26,0-2.28-1.02-2.28-2.28s1.02-2.28,2.28-2.28h74.04c1.26,0,2.28,1.02,2.28,2.28Z" fill="#fff"></path>
    <path d="M237.05,580.7h-74.04c-1.57,0-2.85-1.28-2.85-2.85s1.28-2.85,2.85-2.85h74.04c1.57,0,2.85,1.28,2.85,2.85s-1.28,2.85-2.85,2.85Zm-74.04-4.56c-.94,0-1.71,.77-1.71,1.71s.77,1.71,1.71,1.71h74.04c.94,0,1.71-.77,1.71-1.71s-.77-1.71-1.71-1.71h-74.04Z" fill="#002346"></path>
  </g>
  <g>
    <path d="M239.32,577.86c0,1.26-1.02,2.28-2.28,2.28h-58.09v-4.56h58.09c1.26,0,2.28,1.02,2.28,2.28Z" fill="#93a4fb"></path>
    <path d="M237.05,580.7h-58.66v-5.7h58.66c1.57,0,2.85,1.28,2.85,2.85s-1.28,2.85-2.85,2.85Zm-57.53-1.14h57.53c.94,0,1.71-.77,1.71-1.71s-.77-1.71-1.71-1.71h-57.53v3.42Z" fill="#002346"></path>
  </g>
  <g>
    <path d="M239.32,584.69c0,1.26-1.02,2.28-2.28,2.28h-74.04c-1.26,0-2.28-1.02-2.28-2.28s1.02-2.28,2.28-2.28h74.04c1.26,0,2.28,1.02,2.28,2.28Z" fill="#fff"></path>
    <path d="M237.05,587.54h-74.04c-1.57,0-2.85-1.28-2.85-2.85s1.28-2.85,2.85-2.85h74.04c1.57,0,2.85,1.28,2.85,2.85s-1.28,2.85-2.85,2.85Zm-74.04-4.56c-.94,0-1.71,.77-1.71,1.71s.77,1.71,1.71,1.71h74.04c.94,0,1.71-.77,1.71-1.71s-.77-1.71-1.71-1.71h-74.04Z" fill="#002346"></path>
  </g>
  <g>
    <path d="M239.32,584.69c0,1.26-1.02,2.28-2.28,2.28h-67.21v-4.56h67.21c1.26,0,2.28,1.02,2.28,2.28Z" fill="#e6e7e8"></path>
    <path d="M237.05,587.54h-67.78v-5.7h67.78c1.57,0,2.85,1.28,2.85,2.85s-1.28,2.85-2.85,2.85Zm-66.64-1.14h66.64c.94,0,1.71-.77,1.71-1.71s-.77-1.71-1.71-1.71h-66.64v3.42Z" fill="#002346"></path>
  </g>
  <g>
    <path d="M241.6,602.92h45.12c4.02,0,7.28,3.26,7.28,7.28h0v16.76c0,4.02-3.26,7.28-7.28,7.28h-45.12v-31.33h0Z" fill="#f6e574"></path>
    <path d="M286.72,634.8h-45.12c-.31,0-.57-.25-.57-.57v-31.33c0-.35,.35-.63,.69-.56h45c4.33,0,7.85,3.52,7.85,7.85v16.76c0,4.33-3.52,7.85-7.85,7.85Zm-44.55-1.14h44.55c3.7,0,6.71-3.01,6.71-6.71v-16.76c0-3.7-3.01-6.71-6.71-6.71h-44.55v30.18Z" fill="#002346"></path>
  </g>
  <g>
    <path d="M246.28,602.92H126.43c-3.08,0-5.57,2.49-5.57,5.57h0v20.18c0,3.08,2.49,5.57,5.57,5.57h43.41v-2.77c0-2.56,2.08-4.64,4.64-4.64h45.4c2.56,0,4.64,2.08,4.64,4.64h0v2.77h21.77c3.08,0,5.57-2.49,5.57-5.57h0v-20.19c0-3.08-2.49-5.57-5.57-5.57Z" fill="#f6e574"></path>
    <path d="M246.28,634.81h-21.77c-.31,0-.57-.25-.57-.57v-2.77c0-2.24-1.82-4.07-4.07-4.07h-45.4c-2.24,0-4.07,1.83-4.07,4.07v2.77c0,.31-.25,.57-.57,.57h-43.41c-3.39,0-6.14-2.75-6.14-6.14v-20.18c0-3.39,2.75-6.14,6.14-6.14h119.86c3.39,0,6.14,2.75,6.14,6.14v20.18c0,3.39-2.75,6.14-6.14,6.14Zm-21.2-1.14h21.2c2.76,0,5-2.24,5-5v-20.18c0-2.76-2.24-5-5-5H126.43c-2.76,0-5,2.24-5,5v20.18c0,2.76,2.24,5,5,5h42.84v-2.2c0-2.87,2.33-5.21,5.21-5.21h45.4c2.87,0,5.21,2.33,5.21,5.21v2.2Z" fill="#002346"></path>
  </g>
  <circle cx="132.25" cy="617.72" r="3.42" fill="#002346"></circle>
  <g opacity=".2">
    <circle cx="132.25" cy="617.72" r="2.28"></circle>
  </g>
  <g>
    <path d="M239.32,614.31c0,1.26-1.02,2.28-2.28,2.28h-74.04c-1.26,0-2.28-1.02-2.28-2.28s1.02-2.28,2.28-2.28h74.04c1.26,0,2.28,1.02,2.28,2.28Z" fill="#fff"></path>
    <path d="M237.05,617.15h-74.04c-1.57,0-2.85-1.28-2.85-2.85s1.28-2.85,2.85-2.85h74.04c1.57,0,2.85,1.28,2.85,2.85s-1.28,2.85-2.85,2.85Zm-74.04-4.56c-.94,0-1.71,.77-1.71,1.71s.77,1.71,1.71,1.71h74.04c.94,0,1.71-.77,1.71-1.71s-.77-1.71-1.71-1.71h-74.04Z" fill="#002346"></path>
  </g>
  <g>
    <path d="M239.32,614.31c0,1.26-1.02,2.28-2.28,2.28h-58.09v-4.56h58.09c1.26,0,2.28,1.02,2.28,2.28Z" fill="#93a4fb"></path>
    <path d="M237.05,617.15h-58.66v-5.69h58.66c1.57,0,2.85,1.28,2.85,2.85s-1.28,2.85-2.85,2.85Zm-57.53-1.14h57.53c.94,0,1.71-.77,1.71-1.71s-.77-1.71-1.71-1.71h-57.53v3.42Z" fill="#002346"></path>
  </g>
  <g>
    <path d="M239.32,621.14c0,1.26-1.02,2.28-2.28,2.28h-74.04c-1.26,0-2.28-1.02-2.28-2.28s1.02-2.28,2.28-2.28h74.04c1.26,0,2.28,1.02,2.28,2.28Z" fill="#fff"></path>
    <path d="M237.05,623.99h-74.04c-1.57,0-2.85-1.28-2.85-2.85s1.28-2.85,2.85-2.85h74.04c1.57,0,2.85,1.28,2.85,2.85s-1.28,2.85-2.85,2.85Zm-74.04-4.56c-.94,0-1.71,.77-1.71,1.71s.77,1.71,1.71,1.71h74.04c.94,0,1.71-.77,1.71-1.71s-.77-1.71-1.71-1.71h-74.04Z" fill="#002346"></path>
  </g>
  <g>
    <path d="M239.32,621.14c0,1.26-1.02,2.28-2.28,2.28h-67.21v-4.56h67.21c1.26,0,2.28,1.02,2.28,2.28Z" fill="#e6e7e8"></path>
    <path d="M237.05,623.99h-67.78v-5.7h67.78c1.57,0,2.85,1.28,2.85,2.85s-1.28,2.85-2.85,2.85Zm-66.64-1.14h66.64c.94,0,1.71-.77,1.71-1.71s-.77-1.71-1.71-1.71h-66.64v3.42Z" fill="#002346"></path>
  </g>
  <g>
    <path d="M544.6,586.66l15.3-141.67c.65-5.59,5.82-9.83,12.04-9.83h236.84c6.83,0,12.13,5.38,11.39,11.55l-13.58,139.95h-262Z" fill="#fff"></path>
    <path d="M807.12,587.23h-263.15l.07-.63,15.3-141.67c.68-5.9,6.1-10.34,12.61-10.34h236.84c3.65,0,7.06,1.48,9.35,4.07,2.03,2.29,2.96,5.18,2.61,8.12l-13.63,140.45Zm-261.88-1.14h260.84l13.53-139.44c.31-2.63-.51-5.2-2.33-7.24-2.08-2.34-5.17-3.68-8.5-3.68h-236.84c-5.92,0-10.86,4.01-11.47,9.33l-15.23,141.04Z" fill="#002346"></path>
  </g>
  <g>
    <path d="M615.83,508.06c-2.2,0-3.97-1.8-3.96-3.99,0-1.07,.44-2.1,1.21-2.84,10.92-10.4,39.87-34.5,72.78-33.56,2.67-.06,32.77,.09,66.83,33.33,1.64,1.47,1.77,3.99,.3,5.63-1.47,1.64-3.99,1.77-5.63,.3-.08-.08-.16-.15-.24-.24-32.29-31.52-60.85-31.05-61.14-31.07h-.25c-30.76-.87-59.23,23.78-67.21,31.37-.73,.69-1.7,1.07-2.7,1.07Z" fill="#f6e574"></path>
    <path d="M615.83,508.63h0c-1.21,0-2.35-.48-3.21-1.34-.85-.86-1.32-2.01-1.32-3.22,0-1.22,.51-2.4,1.39-3.25,10.98-10.46,40.09-34.67,73.19-33.72,3.27-.07,33.16,.26,67.21,33.49,.89,.8,1.42,1.91,1.49,3.13,.06,1.21-.35,2.38-1.16,3.29s-1.93,1.44-3.15,1.5c-1.21,.07-2.38-.35-3.29-1.16-.1-.09-.19-.18-.28-.27-30.43-29.7-57.65-30.86-60.65-30.89-.01,0-.1,0-.11,0h-.2c-30.62-.85-58.89,23.68-66.81,31.22-.84,.79-1.94,1.22-3.09,1.23Zm68.17-40.42c-31.92,0-59.86,23.27-70.53,33.43-.65,.63-1.03,1.52-1.04,2.43,0,.91,.35,1.77,.99,2.41,.64,.65,1.49,1,2.4,1.01,.86,0,1.68-.33,2.31-.92,8-7.61,36.56-32.43,67.61-31.52h.23c3.13,.04,30.77,1.21,61.53,31.24,.08,.09,.15,.16,.22,.22,.68,.61,1.56,.92,2.47,.87,.91-.05,1.75-.45,2.36-1.13,.61-.68,.92-1.55,.87-2.47s-.45-1.75-1.13-2.36c-33.73-32.92-63.18-33.25-66.44-33.18-.62-.02-1.25-.03-1.87-.03Z" fill="#002346"></path>
  </g>
  <g>
    <path d="M641.93,532.88c-2.2,0-3.98-1.77-3.98-3.97,0-.93,.32-1.82,.91-2.54,4.13-5.06,19.36-21.64,41.5-22.78,16-.85,31.95,6.44,47.38,21.64,1.57,1.54,1.6,4.07,.05,5.64-1.54,1.57-4.07,1.6-5.64,.05-13.77-13.58-27.68-20.11-41.36-19.36-18.88,1-32.13,15.49-35.76,19.9-.76,.91-1.9,1.43-3.09,1.41Z" fill="#f6e574"></path>
    <path d="M641.99,533.45s-.05,0-.07,0c-2.5,0-4.54-2.03-4.55-4.54,0-1.05,.37-2.08,1.04-2.9,4.17-5.1,19.52-21.84,41.91-22.99,16.17-.87,32.25,6.47,47.8,21.81,.87,.85,1.35,1.99,1.36,3.21,.01,1.22-.45,2.37-1.31,3.24-.85,.87-1.99,1.35-3.21,1.36-1.22-.01-2.37-.45-3.24-1.31-13.67-13.47-27.44-19.93-40.93-19.2-18.59,.99-31.76,15.32-35.35,19.69-.86,1.03-2.12,1.62-3.46,1.62Zm-.06-1.14s.04,0,.06,0c1,0,1.94-.44,2.59-1.21,3.66-4.46,17.11-19.09,36.16-20.1,13.82-.77,27.89,5.82,41.79,19.53,.65,.64,1.53,.97,2.43,.98,.91,0,1.77-.37,2.41-1.02,.64-.65,.99-1.51,.98-2.43s-.37-1.77-1.02-2.41c-15.31-15.1-31.1-22.32-46.95-21.48-21.92,1.13-36.99,17.56-41.09,22.57-.5,.61-.78,1.38-.78,2.18,0,1.88,1.53,3.4,3.41,3.4,0,0,0,0,0,0Z" fill="#002346"></path>
  </g>
  <g>
    <path d="M699.99,553.11c-1.22,0-2.38-.56-3.13-1.53-3.42-4.32-7.13-6.65-11.07-6.93-6.64-.46-12.94,4.85-15.34,7.16-1.42,1.68-3.94,1.89-5.62,.47-1.68-1.42-1.89-3.94-.47-5.62,.17-.2,.36-.38,.57-.55,3.93-3.78,11.94-10.05,21.43-9.36,6.28,.43,11.93,3.78,16.78,9.96,1.36,1.73,1.06,4.23-.67,5.59-.71,.54-1.57,.82-2.46,.8Z" fill="#f6e574"></path>
    <path d="M667.39,553.81c-1.07,0-2.1-.38-2.93-1.08-.93-.79-1.5-1.89-1.6-3.1s.27-2.39,1.06-3.32c.19-.23,.41-.44,.65-.63,3.97-3.82,12.13-10.18,21.82-9.49,6.45,.45,12.23,3.87,17.19,10.17,1.55,1.97,1.2,4.84-.77,6.39-.81,.62-1.82,.94-2.82,.92h0c-1.41,0-2.71-.64-3.58-1.75-3.32-4.19-6.9-6.45-10.66-6.71-6.42-.43-12.57,4.75-14.91,7.01-.75,.89-1.85,1.46-3.06,1.56-.13,.01-.26,.02-.39,.02Zm17.52-16.52c-8.64,0-15.92,5.72-19.6,9.25-.22,.18-.38,.33-.52,.51-.59,.7-.87,1.58-.8,2.49,.08,.91,.5,1.73,1.2,2.32,.7,.59,1.58,.87,2.49,.8,.91-.08,1.73-.5,2.32-1.2,2.49-2.4,8.94-7.83,15.82-7.37,4.09,.28,7.95,2.69,11.48,7.14,.65,.83,1.63,1.31,2.68,1.31h0s.06,0,.09,0c.73,0,1.45-.24,2.03-.68,1.47-1.16,1.73-3.31,.57-4.79-4.75-6.04-10.26-9.32-16.37-9.74-.47-.03-.93-.05-1.39-.05Z" fill="#002346"></path>
  </g>
  <g>
    <rect x="606.77" y="630.25" width="138.97" height="6.83" fill="#f6e574"></rect>
    <path d="M745.74,637.66h-138.97c-.31,0-.57-.25-.57-.57v-6.83c0-.31,.25-.57,.57-.57h138.97c.31,0,.57,.25,.57,.57v6.83c0,.31-.25,.57-.57,.57Zm-138.4-1.14h137.83v-5.7h-137.83v5.7Z" fill="#002346"></path>
  </g>
  <g>
    <path d="M395.12,607.05l.25,26.78c0,1.76,1.41,3.18,3.17,3.19h40.39c.8,0,1.45-.65,1.45-1.45,0-.45-.21-.88-.57-1.15l-18.95-14.55c-.99-.77-1.57-1.95-1.57-3.2l.31-10.49-24.47,.87Z" fill="#f6e574"></path>
    <path d="M438.93,637.59h-40.38c-1.01,0-1.95-.4-2.66-1.11-.71-.71-1.09-1.65-1.09-2.65l-.25-26.77c0-.31,.24-.56,.55-.57l24.47-.87c.16,0,.31,.05,.42,.17,.11,.11,.17,.26,.17,.42l-.31,10.49c0,1.05,.5,2.08,1.35,2.73l18.95,14.55c.5,.38,.79,.98,.79,1.6,0,.54-.21,1.05-.59,1.43-.38,.38-.89,.59-1.42,.59Zm-43.24-29.99l.25,26.23c0,.7,.27,1.36,.76,1.85,.49,.49,1.15,.77,1.84,.77h40.39c.23,0,.45-.09,.62-.26s.26-.39,.26-.62c0-.27-.13-.53-.35-.7l-18.96-14.55c-1.12-.87-1.8-2.23-1.79-3.65l.29-9.9-23.31,.82Z" fill="#002346"></path>
  </g>
  <g>
    <rect x="290.58" y="521.45" width="4.56" height="106.89" fill="#fff"></rect>
    <path d="M295.71,628.91h-5.7v-108.03h5.7v108.03Zm-4.56-1.14h3.42v-105.75h-3.42v105.75Z" fill="#002346"></path>
  </g>
  <g>
    <path d="M422.21,606.19h-7.86l-47.44-137.9s49.23-11.8,50.99,26.78l4.32,111.12Z" fill="#93a4fb"></path>
    <path d="M422.8,606.75h-8.86l-.13-.38-47.65-138.49,.61-.15c.26-.06,26.23-6.12,41.19,5.13,6.52,4.91,10.06,12.37,10.5,22.17l4.34,111.71Zm-8.05-1.14h6.86l-4.29-110.53c-.43-9.45-3.81-16.62-10.05-21.31-13.26-9.98-35.64-5.91-39.62-5.07l47.1,136.91Z" fill="#002346"></path>
  </g>
  <g>
    <path d="M279.19,461.44l64.37,1.41s6.12-6.12,10.49-55.06c2.86-2.77,6.1-5.12,9.61-6.99,0,0-6.12-34.96-27.1-37.59l-31.46,1.75s-20.97-2.62-26.2,24.47l-11.78,56.82c-1.42,6.83,2.97,13.52,9.8,14.94,.74,.15,1.5,.24,2.26,.26Z" fill="#f6e574"></path>
    <path d="M343.56,463.42h-.01l-64.37-1.41h0c-.79-.02-1.59-.11-2.36-.27-3.45-.72-6.42-2.73-8.35-5.68-1.93-2.95-2.61-6.47-1.89-9.93l11.78-56.82c5.13-26.59,25.53-25.05,26.77-24.92l31.42-1.75s.07,0,.1,0c21.16,2.65,27.34,36.61,27.59,38.06,.04,.24-.08,.49-.29,.6-3.41,1.81-6.55,4.08-9.33,6.75-4.34,48.4-10.38,54.95-10.64,55.2-.11,.11-.25,.17-.4,.17Zm-64.36-2.55l64.09,1.41c.9-1.3,6.28-10.74,10.2-54.54,.01-.14,.07-.26,.17-.36,2.8-2.71,5.95-5.03,9.37-6.89-.77-3.87-7.4-34.27-26.48-36.72l-31.41,1.75s-.07,0-.1,0c-.83-.1-20.51-2.21-25.57,24.01l-11.78,56.83c-.65,3.16-.04,6.38,1.73,9.07s4.48,4.54,7.63,5.19c.71,.15,1.44,.23,2.16,.25h0Z" fill="#002346"></path>
  </g>
  <g>
    <path d="M351.42,431.26l21.06,10.79,24.71,6.47s4.29-2.1,7.67,0l2.49,2.96h3.62l-2.67-5.91s.03-.06,.05-.04l5.11,5.12,4.37-7.87s-5.25-6.99-11.39-6.99c-3.37-.63-6.62-1.8-9.61-3.49l-29.09-19.23-4.11-12.25c-3.52,1.86-6.76,4.22-9.61,6.99,0,0-1.73,16.32-2.6,23.43Z" fill="#f2b3c1"></path>
    <path d="M411.79,452.01h-4.68l-2.6-3.08c-3.08-1.85-7.05,.05-7.09,.07l-.18,.09-.19-.05-24.81-6.51-21.39-10.95,.04-.36c.86-7.02,2.58-23.26,2.6-23.42l.02-.19,.14-.13c2.89-2.81,6.17-5.19,9.73-7.08l.55-.29,4.25,12.66,28.94,19.13c2.92,1.64,6.1,2.79,9.42,3.41h.01c6.23,0,11.48,6.9,11.7,7.2l.2,.27-4.88,8.78-3.69-3.7,1.89,4.18Zm-4.19-1.05h2.56l-2.52-5.57,.74-.54,.35,.32,4.62,4.63,3.87-6.96c-1.02-1.25-5.62-6.52-10.76-6.52-3.53-.65-6.82-1.84-9.87-3.55l-29.28-19.35-3.97-11.83c-3.21,1.76-6.17,3.94-8.81,6.48-.19,1.81-1.72,16.1-2.53,22.89l20.69,10.59,24.47,6.41c.89-.39,4.78-1.89,7.99,.11l.12,.11,2.34,2.77Z" fill="#002346"></path>
  </g>
  <g>
    <path d="M312.97,342.24v21.15c0,1.66,.48,3.28,1.41,4.65,1.71,2.51,4.91,6.45,9.04,8.25,2.99,1.31,6.47,1.18,9.34-.37,2-1.08,3.83-3.02,3.79-6.54v-11.8l-23.59-15.34Z" fill="#f2b3c1"></path>
    <path d="M327.72,377.71c-1.54,0-3.07-.31-4.51-.94-4.36-1.91-7.68-6.11-9.26-8.44-.99-1.46-1.51-3.17-1.5-4.95v-22.12l24.64,16.03v12.09c.03,3.12-1.38,5.54-4.07,7-1.63,.88-3.46,1.33-5.3,1.33Zm-14.22-34.5v20.19c0,1.56,.45,3.06,1.32,4.35,1.52,2.24,4.69,6.26,8.82,8.07,2.85,1.25,6.17,1.11,8.88-.35,2.36-1.28,3.54-3.32,3.52-6.07v-11.52l-22.54-14.66Z" fill="#002346"></path>
  </g>
  <g>
    <path d="M351.42,345.74c-.59,3.66-1.86,7.18-3.72,10.39-2.62,4.21-7.63,6.29-12.46,5.16-11.61-2.63-19.99-16.43-19.99-16.43l.24-4.21,4.32-2.73s9.76-1.79,11.52-14.02c0,0,12.6,9.68,21.15,8.16,.02,4.58-.33,9.16-1.05,13.69Z" fill="#f2b3c1"></path>
    <path d="M337.87,362.12c-.91,0-1.84-.1-2.76-.32-11.69-2.65-19.97-16.09-20.32-16.67l-.08-.14,.26-4.65,4.73-2.95c.38-.07,9.42-1.89,11.09-13.58l.13-.89,.71,.55c.12,.1,12.52,9.51,20.74,8.06l.61-.11v.62c.02,4.6-.33,9.23-1.05,13.78h0c-.61,3.74-1.88,7.3-3.79,10.57-2.25,3.62-6.16,5.73-10.28,5.73Zm-22.09-17.39c.91,1.43,8.93,13.64,19.57,16.05,4.62,1.08,9.4-.9,11.9-4.92,1.84-3.15,3.07-6.58,3.65-10.19,.68-4.29,1.03-8.66,1.04-13-7.55,.88-17.52-5.85-20.25-7.83-1.99,11.02-10.63,13.34-11.69,13.58l-4.01,2.54-.21,3.78Z" fill="#002346"></path>
  </g>
  <g>
    <path d="M279.19,461.44l-3.8,24.98s-3.5,24.48,19.22,25.35h53.2l30.76,97.9,39.33-1.88-23.6-108.22s-1.74-25.35-24.47-30.59l-26.2-6.12-64.43-1.42Z" fill="#93a4fb"></path>
    <path d="M378.15,610.25l-30.76-97.92h-52.78c-6.56-.25-11.61-2.45-15.02-6.54-6.36-7.62-4.82-18.97-4.76-19.45l3.88-25.48,65.05,1.45,26.2,6.12c22.87,5.27,24.89,30.84,24.91,31.1l23.73,108.79-40.44,1.93Zm-30.34-99.05h.42l.13,.4,30.62,97.48,38.22-1.83-23.46-107.56c-.03-.33-2-25.07-24.04-30.15l-26.14-6.1-63.87-1.41-3.73,24.49c-.02,.11-1.53,11.33,4.51,18.56,3.2,3.83,7.97,5.89,14.17,6.13h53.17Z" fill="#002346"></path>
  </g>
  <g>
    <path d="M382.26,609.68v24.15c0,1.76,1.41,3.18,3.17,3.19h40.39c.8,0,1.45-.65,1.45-1.45,0-.45-.21-.88-.57-1.15l-18.95-14.55c-.99-.77-1.57-1.95-1.57-3.2v-8.32l-23.91,1.32Z" fill="#f6e574"></path>
    <path d="M425.82,637.59h-40.38c-2.08,0-3.75-1.69-3.75-3.76v-24.15c0-.3,.24-.55,.54-.57l23.91-1.32c.15-.02,.31,.05,.42,.15,.11,.11,.18,.26,.18,.41v8.32c0,1.07,.5,2.1,1.35,2.75l18.95,14.55c.5,.38,.79,.98,.79,1.6,0,.54-.21,1.05-.59,1.43-.38,.38-.89,.59-1.42,.59Zm-42.99-27.37v23.61c0,1.44,1.16,2.62,2.6,2.62h40.39c.23,0,.45-.09,.62-.26,.17-.17,.26-.39,.26-.62,0-.27-.13-.53-.35-.7l-18.96-14.55c-1.12-.87-1.79-2.23-1.79-3.65v-7.71l-22.77,1.26Z" fill="#002346"></path>
  </g>
  <g>
    <path d="M262.28,511.79h61.17c3.86,0,6.99,3.17,6.99,7.09h0c0,3.92-3.13,7.09-6.99,7.09h-61.17c-3.86,0-6.99-3.17-6.99-7.09h0c0-3.92,3.13-7.09,6.99-7.09Z" fill="#e6e7e8"></path>
    <path d="M323.45,526.54h-61.17c-4.17,0-7.57-3.44-7.57-7.66s3.39-7.66,7.57-7.66h61.17c4.17,0,7.57,3.44,7.57,7.66s-3.39,7.66-7.57,7.66Zm-61.17-14.18c-3.54,0-6.42,2.92-6.42,6.52s2.88,6.52,6.42,6.52h61.17c3.54,0,6.42-2.92,6.42-6.52s-2.88-6.52-6.42-6.52h-61.17Z" fill="#002346"></path>
  </g>
  <g>
    <path d="M279.75,626.93h27.09c6.29,0,11.39,5.17,11.39,11.55h-49.84c0-6.36,5.08-11.53,11.36-11.55Z" fill="#e6e7e8"></path>
    <path d="M318.8,639.05h-50.98v-.57c0-6.66,5.35-12.1,11.93-12.12h27.09c6.6,0,11.96,5.44,11.96,12.12v.57Zm-49.82-1.15h48.66c-.3-5.78-5.03-10.4-10.8-10.4h-27.09c-5.76,.02-10.47,4.63-10.77,10.4Z" fill="#002346"></path>
  </g>
  <g>
    <polygon points="471.54 637.97 367.32 468.16 374.33 471.27 475.41 635.57 471.54 637.97" fill="#fff"></polygon>
    <path d="M471.36,638.75l-.3-.49-105.18-171.37,8.84,3.93,.09,.15,101.38,164.79-4.84,2.99Zm-102.59-169.33l102.96,167.76,2.9-1.79-100.69-163.67-5.17-2.29Z" fill="#002346"></path>
  </g>
  <g>
    <polygon points="369.71 638.23 365.84 635.81 468.61 471.26 475.54 468.16 369.71 638.23" fill="#fff"></polygon>
    <path d="M369.89,639.01l-4.83-3.02,.3-.48,102.86-164.7,8.78-3.93-107.12,172.13Zm-3.26-3.38l2.9,1.81,104.55-168-5.07,2.27-102.38,163.93Z" fill="#002346"></path>
  </g>
  <g>
    <polygon points="443.19 394.68 409.15 458.48 481.06 458.48 515.41 394.68 443.19 394.68" fill="#f6e574"></polygon>
    <path d="M481.07,459.05h-71.91c-.2,0-.39-.1-.49-.28s-.11-.38-.01-.56l34.04-63.8c.1-.19,.29-.3,.5-.3h72.22c.2,0,.39,.11,.49,.28,.1,.17,.11,.39,.01,.56l-34.34,63.8c-.1,.18-.29,.3-.5,.3Zm-70.96-1.14h70.62l33.73-62.66h-70.92l-33.43,62.66Z" fill="#002346"></path>
  </g>
  <g>
    <path d="M382.78,458.48v-5.88c0-.63,.51-1.14,1.14-1.14h29l-3.74,6.99-26.4,.02Z" fill="#fff"></path>
    <path d="M382.21,459.05v-6.45c0-.94,.77-1.71,1.71-1.71h29.95l-4.34,8.13-27.32,.02Zm1.71-7.02c-.31,0-.57,.26-.57,.57v5.31l25.49-.02,3.13-5.86h-28.05Z" fill="#002346"></path>
  </g>
  <g>
    <path d="M356.34,329.84c-.47,.7-1.12,1.25-1.88,1.61-.64,.29-1.31,.49-1.99,.6-8.55,1.53-21.15-8.16-21.15-8.16-1.75,12.23-11.52,14.02-11.52,14.02l-4.32,2.73-2.52,1.59v11.39h-13.67c-2.35,0-3.76-6.99-3.76-6.99h-1.74l-.93,6.96h-5.24c-4.37-5.24-4.64-14.42-4.64-14.42,2.36-17.92,15.95-18.78,15.95-18.78-.61-3.44,.36-6.96,2.62-9.61,8.74-9.61,20.11-.88,20.11-.88,15.73-6.12,30.59,6.12,30.59,6.12,8.09,6.04,5.67,11.56,4.1,13.82Z" fill="#002346"></path>
    <path d="M313.54,354.2h-14.24c-2.43,0-3.8-5.12-4.22-6.99h-.78l-.93,6.96h-6l-.17-.2c-4.45-5.33-4.76-14.39-4.77-14.77,2.11-16.05,13.13-18.84,15.87-19.29-.44-3.42,.58-6.85,2.84-9.5,8.25-9.08,18.82-2.4,20.62-1.15,15.75-5.91,30.71,6.19,30.87,6.32,8.52,6.36,5.79,12.31,4.21,14.58-.52,.78-1.25,1.41-2.11,1.8-.68,.31-1.4,.53-2.14,.65-7.57,1.36-17.94-5.62-20.83-7.7-2.02,10.96-10.6,13.29-11.71,13.54l-6.49,4.11v11.65Zm-20.24-8.13h2.71l.09,.46c.53,2.64,1.92,6.54,3.2,6.54h13.1v-11.14l7.3-4.57c.38-.07,9.38-1.88,11.06-13.54l.14-.96,.77,.59c.12,.09,12.49,9.5,20.71,8.05,.65-.11,1.27-.3,1.86-.56,.66-.31,1.23-.79,1.64-1.4h0c1.72-2.48,3.5-7.47-3.97-13.05-.17-.14-14.81-11.96-30.04-6.04l-.3,.12-.25-.19c-.45-.34-11.06-8.3-19.34,.81-2.15,2.52-3.06,5.85-2.48,9.13l.11,.62-.63,.04c-.54,.04-13.15,1.07-15.42,18.29,0,0,.31,8.72,4.34,13.78h4.47l.93-6.96Z" fill="#002346"></path>
  </g>
  <g>
    <path d="M308.59,320.77s6.12-9.99,13.11-10.87l-2.59-1.57s-13.15,3.2-10.53,12.44Z" fill="#f6e574"></path>
    <path d="M308.59,321.34s-.05,0-.08,0c-.22-.03-.41-.19-.47-.41-.67-2.35-.42-4.54,.72-6.51,2.79-4.78,9.91-6.56,10.22-6.64,.15-.04,.3-.01,.43,.07l2.59,1.57c.21,.13,.31,.37,.26,.61-.05,.24-.25,.42-.49,.45-6.65,.83-12.64,10.5-12.7,10.6-.1,.17-.29,.27-.49,.27Zm10.44-12.4c-1.21,.34-7,2.13-9.28,6.05-.77,1.32-1.06,2.77-.88,4.32,1.72-2.49,6.13-8.17,11.3-9.67l-1.15-.7Z" fill="#002346"></path>
  </g>
  <g>
    <circle cx="314.28" cy="339.18" r="5.68" fill="#f2b3c1"></circle>
    <path d="M314.28,345.39c-3.42,0-6.21-2.79-6.21-6.21s2.79-6.21,6.21-6.21,6.21,2.79,6.21,6.21-2.79,6.21-6.21,6.21Zm0-11.37c-2.84,0-5.16,2.31-5.16,5.16s2.31,5.16,5.16,5.16,5.16-2.31,5.16-5.16-2.31-5.16-5.16-5.16Z" fill="#002346"></path>
  </g>
  <g>
    <path d="M290.25,420.16l8.73,20.85s7.87,19.97,27.1,18.73c19.23-1.24,44.81-1.25,44.81-1.25l7.62-4.36s12.23,6.12,13.11,.87c0,0,2.62,1.75,4.36,.88,0,0,1.75-.88,0-2.28,.89,.59,2.01,.71,3.01,.33,.96-.3,1.5-1.32,1.2-2.28-.06-.19-.15-.36-.26-.52-1.34-1.63-2.98-2.98-4.83-4l-6.99-5.25s-7.87-5.24-18.35,1.75c0,0-30.6-6.99-41.95-9.61l-13.99-25.35-23.57,11.5Z" fill="#f2b3c1"></path>
    <path d="M324.39,460.31c-18.15,0-25.82-18.92-25.9-19.12l-8.91-21.29,24.46-11.94,14.12,25.58c10.96,2.53,38.76,8.88,41.5,9.51,10.56-6.92,18.66-1.68,18.74-1.63l7.02,5.27c1.85,1.01,3.53,2.4,4.92,4.08,.17,.23,.28,.46,.36,.7,.38,1.24-.31,2.55-1.55,2.93-.59,.23-1.24,.3-1.87,.21,.01,.11,.01,.21,0,.32-.09,.88-.96,1.34-1.06,1.39-1.45,.73-3.32-.05-4.28-.55-.25,.62-.69,1.09-1.31,1.41-3.21,1.63-10.61-1.76-12.1-2.48l-7.5,4.29h-.14c-.26,0-25.79,.03-44.78,1.25-.58,.04-1.16,.06-1.72,.06Zm-33.46-39.9l8.53,20.39c.08,.21,7.96,19.59,26.58,18.41,18.29-1.18,42.63-1.25,44.71-1.25l7.74-4.43,.25,.13c2.32,1.16,8.89,3.88,11.41,2.6,.53-.27,.84-.71,.95-1.36l.13-.8,.68,.45c.66,.44,2.63,1.45,3.83,.85,.12-.06,.46-.3,.49-.56,.02-.22-.18-.52-.58-.84l.62-.85c.75,.5,1.69,.6,2.53,.28,.72-.22,1.1-.95,.89-1.63-.04-.13-.1-.26-.18-.37-1.28-1.55-2.86-2.86-4.66-3.85l-7.06-5.29c-.29-.19-7.7-4.93-17.74,1.77l-.19,.13-.22-.05s-30.6-6.99-41.95-9.61l-.23-.05-13.86-25.11-22.67,11.07Z" fill="#002346"></path>
  </g>
  <g>
    <rect x="326.08" y="458.48" width="187.91" height="13.99" fill="#e6e7e8"></rect>
    <path d="M514.55,473.03h-189.05v-15.13h189.05v15.13Zm-187.91-1.14h186.77v-12.85h-186.77v12.85Z" fill="#002346"></path>
  </g>
  <rect x="696.36" y="423.77" width="1.14" height="6.83" fill="#002346"></rect>
  <path d="M697.5,410.45h-1.14v-13.3h1.14v13.3Zm0-26.61h-1.14v-13.3h1.14v13.3Zm0-26.61h-1.14v-13.3h1.14v13.3Zm0-26.62h-1.14v-13.3h1.14v13.3Zm0-26.61h-1.14v-13.3h1.14v13.3Z" fill="#002346"></path>
  <polygon points="697.5 277.39 696.36 277.39 696.36 271.13 690.09 271.13 690.09 269.99 697.5 269.99 697.5 277.39" fill="#002346"></polygon>
  <path d="M675.86,271.13h-14.23v-1.14h14.23v1.14Zm-28.48,0h-14.2v-1.14h14.23l-.02,1.14Zm-28.48,0h-14.18v-1.14h14.23l-.05,1.14Z" fill="#002346"></path>
  <polygon points="590.5 271.13 583.09 271.13 583.09 263.72 584.23 263.72 584.23 269.99 590.5 269.99 590.5 271.13" fill="#002346"></polygon>
  <path d="M584.23,248.78h-1.14v-14.95h1.14v14.95Zm0-29.89h-1.14v-14.97h1.14v14.97Zm0-29.89h-1.14v-14.95h1.14v14.95Zm0-29.89h-1.14v-14.95h1.14v14.95Z" fill="#002346"></path>
  <polygon points="584.23 129.23 583.09 129.23 583.09 122.96 576.83 122.96 576.83 121.82 584.23 121.82 584.23 129.23" fill="#002346"></polygon>
  <path d="M136.34,354.11h-1.14l.07-13.82h1.14l-.07,13.82Zm.14-27.62h-1.14l.07-13.82h1.14l-.07,13.82Zm.14-27.63h-1.14l.07-13.82h1.14l-.07,13.82Zm.14-27.63h-1.14l.06-13.76h1.14l-.06,13.76Zm.14-27.62h-1.14l.07-13.81h1.14l-.07,13.81Zm.14-27.63h-1.14l.07-13.82h1.14l-.07,13.82Zm.14-27.62h-1.14l.07-13.82h1.14l-.07,13.82Zm.14-27.63h-1.14l.07-13.82h1.14l-.07,13.82Zm2.19-27.03l-1.03-.51c2.17-4.26,5.73-7.65,10.1-9.59l.47,1.05c-4.13,1.83-7.5,5.03-9.55,9.06h0Zm423.53-10.72h-13.85v-1.14h13.82l.03,1.14Zm-27.62,0h-13.82v-1.14h13.82v1.14Zm-27.63,0h-13.82v-1.14h13.82v1.14Zm-27.63,0h-13.81v-1.14h13.81v1.14Zm-27.62,0h-13.83v-1.14h13.82v1.14Zm-27.62,0h-13.82v-1.14h13.82v1.14Zm-27.63,0h-13.81v-1.14h13.81v1.14Zm-27.62,0h-13.82v-1.14h13.82v1.14Zm-27.63,0h-13.79v-1.14h13.82l-.02,1.14Zm-27.62,0h-13.82v-1.14h13.82v1.14Zm-27.63,0h-13.82v-1.14h13.82v1.14Zm-27.63,0h-13.82v-1.14h13.82v1.14Zm-27.62,0h-13.77v-1.14h13.82l-.05,1.14Zm-27.63,0h-13.82v-1.14h13.82v1.14Zm-27.63,0h-13.81v-1.14h13.81v1.14Z" fill="#002346"></path>
  <polygon points="142.5 375.36 135.09 375.36 135.13 367.94 136.27 367.95 136.25 374.22 142.5 374.22 142.5 375.36" fill="#002346"></polygon>
  <path d="M201.73,375.36h-14.81v-1.14h14.81v1.14Zm-29.62,0h-14.81v-1.14h14.81v1.14Z" fill="#002346"></path>
  <polygon points="223.95 381.62 222.81 381.62 222.81 375.36 216.54 375.36 216.54 374.22 223.95 374.22 223.95 381.62" fill="#002346"></polygon>
  <rect x="222.81" y="397.57" width="1.14" height="6.83" fill="#002346"></rect>
  <g>
    <path d="M237.04,304.47H38.84c6.83-46.7,38.73-31.9,38.73-31.9,4.56-13.67,17.25-11.72,17.25-11.72-.08-4.69,.3-9.38,1.14-14,.67-3.49,2.18-6.77,4.4-9.56h0c3.7-4.75,9.28-7.66,15.3-7.97,19.36-.95,30.24,25.06,30.24,25.06,3.08-3.4,7.3-5.56,11.87-6.07,6.95-.94,13.98,1.09,19.36,5.59,10.08,8.46,8.61,20.98,8.61,20.98,12.53,4.56,11.39,13.67,11.39,13.67,30.8-15.98,39.91,15.91,39.91,15.91Z" fill="#fff"></path>
    <path d="M237.8,305.04H38.18l.1-.65c2.39-16.36,8.1-27.08,16.96-31.87,9.4-5.08,19.5-1.68,21.99-.7,4.18-11.57,14.32-11.76,17.01-11.59-.03-4.51,.35-9.04,1.16-13.48,.69-3.58,2.25-6.97,4.51-9.81,3.8-4.88,9.53-7.86,15.71-8.19,.35-.02,.7-.03,1.04-.03,16.99,0,27.39,20.35,29.4,24.65,3.12-3.15,7.22-5.14,11.64-5.63,7.08-.96,14.3,1.12,19.79,5.72,9.11,7.65,8.99,18.68,8.85,21.04,9.97,3.79,11.25,10.57,11.37,13.12,9.14-4.54,17.28-5.33,24.22-2.35,11.53,4.97,15.5,18.46,15.67,19.04l.21,.73Zm-198.3-1.14H236.26c-1-2.87-5.25-13.47-14.79-17.58-6.81-2.93-14.91-2.01-24.07,2.74l-.96,.5,.13-1.07c.04-.35,.9-8.73-11.02-13.06l-.42-.15,.05-.45c.01-.12,1.31-12.32-8.41-20.48-5.25-4.39-12.15-6.39-18.92-5.46-4.44,.5-8.53,2.59-11.52,5.89l-.6,.66-.35-.83c-.11-.26-10.98-25.64-29.69-24.71-5.85,.31-11.27,3.13-14.88,7.75-2.16,2.71-3.64,5.92-4.29,9.31-.83,4.57-1.21,9.24-1.13,13.88v.67s-.66-.1-.66-.1c-.5-.08-12.27-1.7-16.62,11.34l-.2,.6-.58-.27c-.11-.05-11.3-5.11-21.56,.44-8.41,4.55-13.88,14.77-16.27,30.37Z" fill="#002346"></path>
  </g>
  <g>
    <path d="M245.78,304.47h-8.74s-9.11-31.9-39.87-15.95c0,0,1.14-9.11-11.39-13.67,0,0,1.47-12.53-8.61-20.98-5.38-4.51-12.41-6.54-19.36-5.59-4.57,.5-8.8,2.66-11.89,6.07,0,0-10.86-26.04-30.24-25.06-6.01,.32-11.59,3.23-15.3,7.97,.43-1.14,8.61-21.47,31.9-15.95,0,0,13.67,2.28,20.5,22.78,0,0,15.09-14.81,32.6,0,0,0,8.41,6.83,9.55,20.5,0,0,10.25,4.56,11.39,13.67-.02,0,33.4-18.23,39.47,26.2Z" fill="#e6e7e8"></path>
    <path d="M246.43,305.04h-9.82l-.12-.41c-.04-.13-4-13.57-15.04-18.33-6.8-2.93-14.88-2.01-24.02,2.73l-.96,.5,.13-1.07c.04-.35,.9-8.73-11.02-13.06l-.42-.15,.05-.45c.01-.12,1.31-12.33-8.41-20.48-5.24-4.39-12.14-6.38-18.92-5.46-4.45,.49-8.55,2.58-11.55,5.89l-.6,.66-.35-.83c-.11-.26-10.93-25.64-29.69-24.71-5.85,.31-11.27,3.13-14.88,7.76l-2.33,2.98,1.34-3.53c.34-.9,8.66-21.98,32.56-16.3,.53,.09,13.69,2.5,20.64,22.35,3.15-2.63,17.07-12.67,32.71,.56,.34,.28,8.47,7.03,9.72,20.56,1.72,.83,9.83,5.16,11.3,13.19,2.19-1.2,7.51-2.91,11.8-3.3,10.65-.98,24.13,3.5,27.79,30.28l.09,.65Zm-8.97-1.14h7.66c-2.01-13.87-6.93-22.85-14.65-26.68-10.93-5.43-23.75,1.47-23.88,1.54l-.28-.49-.57,.07c-1.09-8.69-10.96-13.17-11.06-13.22l-.31-.14-.03-.34c-1.11-13.27-9.26-20.04-9.34-20.11-16.91-14.3-31.24-.62-31.84-.04l-.65,.64-.29-.86c-6.65-19.95-19.92-22.38-20.06-22.4-17.39-4.12-26.19,6.43-29.57,12.18,3.59-3.18,8.17-5.08,13.04-5.34,17.62-.88,28.4,20.23,30.44,24.62,3.12-3.15,7.23-5.14,11.66-5.63,7.08-.96,14.3,1.12,19.79,5.72,9.11,7.64,8.99,18.68,8.85,21.04,9.97,3.79,11.25,10.57,11.37,13.12,9.12-4.53,17.24-5.31,24.16-2.33,10.55,4.55,14.78,16.25,15.55,18.64Z" fill="#002346"></path>
  </g>
  <g>
    <path d="M156.09,314.25l4.88,1.82,2.86-7.76-4.98-1.88c.41-3.09,.12-6.23-.87-9.19l5.07-2.35-3.87-7.53-5.4,2.49c-1.64-1.89-3.59-3.49-5.76-4.74l2.16-5.82-8.08-3.02-2.28,6.05c-2.7-.39-5.45-.27-8.11,.34l-2.35-4.96-7.77,3.29,2.45,5.16c-2.02,1.46-3.75,3.29-5.09,5.39l-4.93-1.85-2.86,7.76,4.89,1.82c-.43,2.65-.33,5.36,.3,7.97l-5.92,2.75,3.87,7.53,5.6-2.6c1.6,2.2,3.6,4.09,5.89,5.57l-2,5.29,8.08,3.02,1.89-5.1c2.69,.54,5.46,.57,8.17,.09l2.21,4.64,7.76-3.29-2.11-4.43c2.56-1.66,4.72-3.87,6.31-6.47Zm-23.68,2.35c-7.48-3.3-10.87-12.05-7.57-19.53,3.3-7.48,12.05-10.87,19.53-7.57,7.38,3.26,10.8,11.83,7.68,19.27-3.25,7.58-12.03,11.09-19.61,7.84,0,0-.02,0-.03-.01h0Z" fill="#93a4fb"></path>
    <path d="M132.19,329.56l-9.15-3.42,2.05-5.39c-2.06-1.39-3.87-3.1-5.38-5.08l-5.68,2.63-4.39-8.54,6.04-2.8c-.52-2.4-.61-4.84-.27-7.28l-4.99-1.86,3.25-8.83,5.04,1.89c1.26-1.87,2.81-3.51,4.6-4.87l-2.5-5.27,8.82-3.74,2.39,5.04c2.44-.52,4.93-.62,7.42-.31l2.32-6.16,9.14,3.42-2.2,5.91c1.94,1.17,3.69,2.61,5.21,4.29l5.51-2.55,4.39,8.54-5.15,2.38c.84,2.74,1.11,5.67,.79,8.51l5.09,1.92-3.25,8.83-4.98-1.86c-1.51,2.35-3.51,4.4-5.82,5.98l2.15,4.52-8.81,3.74-2.26-4.74c-2.49,.39-5,.36-7.47-.07l-1.92,5.19Zm-7.68-4.08l7.01,2.62,1.86-5.02,.48,.09c2.63,.52,5.31,.55,7.96,.09l.43-.08,2.16,4.53,6.71-2.85-2.07-4.35,.42-.27c2.48-1.6,4.6-3.77,6.13-6.29l.25-.4,4.78,1.79,2.47-6.69-4.87-1.84,.06-.45c.4-2.99,.11-6.08-.84-8.94l-.16-.48,4.99-2.31-3.35-6.52-5.29,2.45-.28-.32c-1.61-1.84-3.5-3.4-5.62-4.62l-.42-.24,2.13-5.74-7.01-2.62-2.24,5.95-.45-.07c-2.64-.38-5.3-.27-7.9,.33l-.45,.1-2.31-4.88-6.72,2.85,2.4,5.05-.38,.28c-1.97,1.43-3.63,3.19-4.95,5.23l-.25,.39-4.83-1.81-2.46,6.69,4.79,1.79-.07,.46c-.42,2.59-.32,5.2,.29,7.75l.11,.45-5.81,2.69,3.35,6.52,5.53-2.56,.28,.38c1.57,2.15,3.5,3.98,5.74,5.43l.39,.25-1.97,5.18Zm13.8-7.07c-2.07,0-4.15-.42-6.11-1.26h-.03c-3.76-1.67-6.64-4.7-8.13-8.53s-1.39-8.01,.27-11.77c3.42-7.76,12.52-11.28,20.28-7.86,7.61,3.36,11.19,12.34,7.97,20.01-1.63,3.81-4.65,6.75-8.5,8.29-1.86,.74-3.81,1.12-5.76,1.12Zm-5.67-2.32c3.54,1.52,7.44,1.57,11,.14,3.56-1.42,6.36-4.15,7.87-7.68,2.97-7.1-.34-15.41-7.38-18.52-7.18-3.17-15.61,.09-18.78,7.28-1.54,3.48-1.62,7.35-.25,10.89,1.37,3.55,4.05,6.34,7.53,7.88h0s-.23,.52-.23,.52l.24-.52Z" fill="#002346"></path>
  </g>
  <g>
    <path d="M729.07,171.95H428.53c10.37-70.82,58.72-48.37,58.72-48.37,6.91-20.73,26.2-17.77,26.2-17.77-.09-7.12,.51-14.23,1.8-21.23,.99-5.29,3.24-10.26,6.57-14.49,0-.02,0-.05,0-.07,5.61-7.21,14.08-11.64,23.2-12.13,29.39-1.42,45.85,38.06,45.85,38.06,4.68-5.16,11.08-8.43,18-9.2,10.56-1.45,21.23,1.63,29.4,8.47,15.29,12.84,13.07,31.82,13.07,31.82,18.99,6.91,17.27,20.73,17.27,20.73,46.65-24.18,60.46,24.18,60.46,24.18Z" fill="#fff"></path>
    <path d="M729.83,172.51H427.87l.1-.65c3.62-24.71,12.22-40.89,25.57-48.11,14.54-7.85,30.19-2.23,33.37-.94,6.4-18.17,22.5-17.91,25.96-17.64-.05-6.93,.56-13.89,1.82-20.7,.99-5.28,3.24-10.3,6.53-14.54v-.05s.15-.21,.15-.21c5.72-7.35,14.33-11.85,23.62-12.35,27.11-1.33,43.48,31.98,46.05,37.61,4.71-4.9,10.99-8,17.76-8.75,10.68-1.46,21.56,1.67,29.83,8.6,14.03,11.79,13.51,28.89,13.3,31.87,15.81,5.93,17.22,16.81,17.26,20.17,13.92-7.01,26.3-8.27,36.81-3.73,17.36,7.49,23.54,28.49,23.6,28.7l.21,.73Zm-300.64-1.14h299.1c-1.25-3.73-7.68-20.76-22.73-27.25-10.4-4.48-22.75-3.09-36.69,4.14l-.96,.5,.13-1.07c.07-.55,1.41-13.46-16.9-20.13l-.42-.15,.05-.45c.02-.19,2-18.83-12.87-31.31-8.03-6.73-18.58-9.77-28.96-8.35-6.8,.76-13.07,3.96-17.65,9.02l-.6,.66-.35-.83c-.16-.38-16.07-37.74-43.79-37.74-.5,0-1,.01-1.5,.04-8.91,.48-17.17,4.77-22.68,11.78l-.02,.1-.08,.1c-3.26,4.14-5.49,9.07-6.46,14.24-1.28,6.95-1.88,14.05-1.79,21.12v.67s-.66-.1-.66-.1c-.77-.12-18.9-2.63-25.57,17.39l-.2,.6-.58-.27c-.17-.08-17.26-7.82-32.94,.67-12.9,6.97-21.27,22.66-24.88,46.61Z" fill="#002346"></path>
  </g>
  <g>
    <path d="M742.32,171.95h-13.25s-13.82-48.37-60.45-24.18c0,0,1.72-13.82-17.27-20.73,0,0,2.22-18.98-13.07-31.82-8.17-6.84-18.84-9.92-29.4-8.47-6.92,.77-13.32,4.05-18,9.2,0,0-16.46-39.48-45.85-38.06-9.13,.49-17.6,4.92-23.22,12.13,.66-1.71,13.07-32.56,48.33-24.16,0,0,20.72,3.42,31.09,34.54,0,0,22.88-22.45,49.44,0,0,0,12.75,10.37,14.48,31.1,0,0,15.54,6.9,17.27,20.72,.01,0,50.69-27.63,59.89,39.73Z" fill="#e6e7e8"></path>
    <path d="M742.97,172.51h-14.33l-.12-.41c-.06-.21-6.1-20.71-22.96-27.98-10.4-4.48-22.74-3.09-36.68,4.14l-.96,.5,.13-1.07c.07-.55,1.41-13.46-16.9-20.13l-.42-.15,.05-.45c.02-.19,2-18.83-12.87-31.31-8.03-6.73-18.58-9.77-28.96-8.35-6.8,.76-13.07,3.96-17.65,9.02l-.6,.66-.35-.83c-.16-.38-16.07-37.74-43.79-37.74-.5,0-1,.01-1.5,.04-8.97,.48-17.28,4.82-22.79,11.91l-2.38,3.05,1.4-3.61c.52-1.35,13.23-33.03,49-24.51,.17,.03,20.77,3.76,31.22,34.09,3.99-3.43,25.41-19.84,49.54,.57,.12,.1,12.81,10.64,14.65,31.16,2.17,1.06,15.13,7.85,17.18,20.23,3.82-1.87,21.75-9.75,37.2-1.84,12.14,6.21,19.82,20.46,22.81,42.36l.09,.65Zm-13.48-1.14h12.17c-3-21.14-10.44-34.88-22.11-40.86-16.51-8.44-36.03,1.75-36.85,2.19l-.13,.07h-.66s-.06-.49-.06-.49c-1.67-13.33-16.78-20.2-16.94-20.27l-.31-.14-.03-.34c-1.69-20.26-14.14-30.6-14.27-30.7-25.85-21.85-47.76-.94-48.68-.04l-.65,.64-.29-.86c-10.14-30.44-30.43-34.12-30.64-34.16-28.08-6.68-41.55,12-45.99,20.2,5.57-5.54,13-8.88,20.94-9.3,27.11-1.33,43.48,31.98,46.05,37.61,4.71-4.9,10.99-8,17.76-8.75,10.68-1.46,21.56,1.67,29.83,8.6,14.04,11.79,13.51,28.89,13.3,31.87,15.81,5.93,17.22,16.81,17.27,20.17,13.91-7.01,26.29-8.27,36.8-3.73,16.01,6.9,22.51,25.3,23.47,28.29Z" fill="#002346"></path>
  </g>
  <g>
    <path d="M613.22,180.69l7.67,2.86,4.5-12.18-7.83-2.92c.65-4.86,.18-9.8-1.37-14.46l7.97-3.69-6.09-11.82-8.49,3.92c-2.57-2.97-5.63-5.49-9.04-7.45l3.42-9.11-12.69-4.74-3.52,9.5c-4.25-.61-8.57-.43-12.75,.55l-3.69-7.79-12.21,5.17,3.85,8.11c-3.15,2.31-5.85,5.18-7.97,8.46l-7.84-2.93-4.5,12.18,7.65,2.86c-.66,4.14-.5,8.38,.47,12.46l-9.32,4.32,6.09,11.82,8.81-4.08c2.52,3.46,5.65,6.43,9.25,8.75l-3.09,8.35,12.69,4.74,2.96-7.97c4.24,.84,8.6,.88,12.85,.13l3.42,7.3,12.2-5.17-3.31-6.98c4.03-2.6,7.42-6.08,9.91-10.18Zm-37.2,3.7c-11.72-5.2-17.01-18.91-11.81-30.63,5.2-11.72,18.91-17.01,30.63-11.81,11.53,5.11,16.87,18.49,12.03,30.13-5.13,11.91-18.93,17.42-30.85,12.31Z" fill="#93a4fb"></path>
    <path d="M575.54,204.31l-13.76-5.14,3.13-8.46c-3.38-2.24-6.31-5.02-8.74-8.26l-8.88,4.11-6.62-12.84,9.44-4.37c-.86-3.88-1.01-7.83-.44-11.77l-7.75-2.9,4.89-13.25,7.95,2.97c2.04-3.06,4.55-5.73,7.49-7.95l-3.91-8.23,13.26-5.62,3.73,7.87c3.97-.87,8.02-1.05,12.05-.52l3.56-9.61,13.76,5.14-3.45,9.2c3.18,1.88,6.04,4.24,8.49,7l8.59-3.97,6.62,12.84-8.05,3.73c1.39,4.42,1.84,9.17,1.29,13.77l7.94,2.96-4.89,13.25-7.76-2.89c-2.41,3.84-5.65,7.17-9.42,9.69l3.36,7.07-13.25,5.62-3.47-7.41c-4.04,.67-8.12,.63-12.15-.11l-2.99,8.06Zm-12.29-5.81l11.62,4.34,2.93-7.89,.48,.09c4.19,.83,8.44,.87,12.64,.12l.43-.08,3.37,7.2,11.15-4.73-3.27-6.9,.42-.27c3.94-2.54,7.3-6,9.73-10l.24-.4,7.57,2.82,4.1-11.11-7.72-2.88,.06-.45c.63-4.75,.17-9.66-1.34-14.2l-.16-.48,7.9-3.66-5.57-10.81-8.38,3.87-.28-.32c-2.54-2.93-5.53-5.4-8.9-7.33l-.42-.24,3.39-9.03-11.62-4.34-3.48,9.4-.46-.07c-4.19-.61-8.41-.42-12.54,.54l-.45,.1-3.65-7.71-11.16,4.73,3.8,8-.38,.28c-3.11,2.28-5.74,5.08-7.83,8.31l-.25,.39-7.73-2.89-4.1,11.11,7.56,2.82-.07,.46c-.65,4.09-.5,8.21,.46,12.24l.11,.45-9.2,4.26,5.57,10.81,8.73-4.05,.28,.38c2.49,3.42,5.55,6.31,9.1,8.6l.38,.25-3.05,8.25Zm21.99-11.64c-3.16,0-6.36-.62-9.44-1.94h0c-5.81-2.58-10.27-7.26-12.55-13.19-2.29-5.93-2.13-12.39,.45-18.2,2.57-5.81,7.26-10.27,13.19-12.55,5.93-2.29,12.39-2.13,18.2,.45,11.71,5.19,17.24,19.04,12.32,30.87-3.92,9.1-12.83,14.56-22.16,14.56Zm-8.98-2.99c11.61,4.97,25.1-.42,30.1-12.02,4.68-11.26-.59-24.44-11.74-29.38-5.53-2.45-11.68-2.6-17.33-.43-5.64,2.18-10.1,6.42-12.55,11.95-2.45,5.53-2.6,11.68-.43,17.33,2.18,5.64,6.42,10.1,11.95,12.55Z" fill="#002346"></path>
  </g>
  <g>
    <path d="M796.35,321.25h-198.2c6.83-46.7,38.73-31.9,38.73-31.9,4.56-13.67,17.25-11.72,17.25-11.72-.08-4.69,.3-9.38,1.14-14,.66-3.51,2.17-6.8,4.4-9.59h0c3.7-4.75,9.28-7.66,15.3-7.97,19.36-.95,30.24,25.06,30.24,25.06,3.08-3.4,7.3-5.56,11.87-6.07,6.95-.94,13.98,1.09,19.36,5.59,10.13,8.45,8.66,20.98,8.66,20.98,12.53,4.56,11.39,13.67,11.39,13.67,30.76-15.95,39.87,15.95,39.87,15.95Z" fill="#fff"></path>
    <path d="M797.1,321.82h-199.62l.1-.65c2.39-16.36,8.1-27.08,16.96-31.87,9.4-5.08,19.5-1.68,21.99-.7,4.18-11.57,14.32-11.76,17.01-11.59-.03-4.51,.35-9.04,1.16-13.48,.68-3.59,2.24-6.99,4.51-9.84,3.8-4.88,9.53-7.86,15.71-8.19,17.59-.89,28.4,20.24,30.44,24.62,3.12-3.15,7.22-5.14,11.64-5.63,7.08-.96,14.3,1.12,19.79,5.72,9.16,7.64,9.03,18.68,8.89,21.04,9.97,3.79,11.25,10.57,11.37,13.12,9.12-4.53,17.24-5.32,24.16-2.33,11.53,4.97,15.51,18.48,15.67,19.05l.21,.73Zm-198.3-1.14h196.76c-1-2.87-5.25-13.49-14.8-17.6-6.8-2.93-14.88-2.01-24.02,2.73l-.96,.5,.13-1.07c.04-.35,.9-8.73-11.02-13.06l-.42-.15,.05-.45c.01-.12,1.3-12.33-8.46-20.48-5.25-4.39-12.14-6.39-18.92-5.47-4.44,.49-8.53,2.58-11.52,5.89l-.6,.66-.35-.83c-.11-.26-10.95-25.66-29.69-24.71-5.85,.31-11.27,3.13-14.88,7.75-2.16,2.71-3.64,5.95-4.29,9.35-.82,4.57-1.21,9.24-1.13,13.88v.67s-.66-.1-.66-.1c-.5-.08-12.27-1.7-16.62,11.34l-.2,.6-.58-.27c-.11-.05-11.3-5.11-21.56,.44-8.41,4.55-13.88,14.77-16.27,30.37Z" fill="#002346"></path>
  </g>
  <g>
    <path d="M805.08,321.25h-8.74s-9.11-31.9-39.87-15.95c0,0,1.14-9.11-11.39-13.67,0,0,1.47-12.53-8.61-20.98-5.38-4.51-12.41-6.54-19.36-5.59-4.57,.5-8.8,2.66-11.89,6.07,0,0-10.86-26.04-30.24-25.06-6.02,.31-11.61,3.22-15.32,7.97,.43-1.14,8.61-21.47,31.9-15.95,0,0,13.67,2.28,20.5,22.78,0,0,15.09-14.81,32.6,0,0,0,8.41,6.83,9.55,20.5,0,0,10.25,4.56,11.39,13.67,0,0,33.42-18.23,39.49,26.2Z" fill="#e6e7e8"></path>
    <path d="M805.74,321.82h-9.82l-.12-.41c-.04-.13-4-13.57-15.04-18.32-6.8-2.93-14.88-2.01-24.02,2.73l-.96,.5,.13-1.07c.04-.35,.9-8.73-11.02-13.06l-.42-.15,.05-.45c.01-.12,1.31-12.33-8.41-20.48-5.25-4.39-12.15-6.39-18.92-5.46-4.45,.49-8.55,2.58-11.55,5.89l-.6,.66-.35-.83c-.1-.25-10.54-24.74-28.67-24.74-.34,0-.68,0-1.02,.03-5.86,.3-11.29,3.13-14.9,7.76l-2.33,2.98,1.34-3.53c.34-.9,8.66-21.98,32.56-16.3,.53,.09,13.69,2.5,20.64,22.35,3.15-2.63,17.07-12.67,32.71,.56,.34,.28,8.47,7.03,9.72,20.56,1.72,.83,9.82,5.16,11.3,13.18,2.95-1.43,14.29-6.24,24.38-1.14,8.12,4.1,13.25,13.57,15.24,28.13l.09,.65Zm-8.97-1.14h7.66c-2-13.8-6.88-22.75-14.52-26.61-10.93-5.53-23.91,1.41-24.04,1.48l-.73,.4-.1-.83c-1.09-8.69-10.96-13.17-11.06-13.22l-.31-.14-.03-.34c-1.1-13.25-9.26-20.04-9.34-20.11-16.91-14.3-31.24-.62-31.84-.03l-.65,.64-.29-.86c-6.65-19.95-19.92-22.38-20.06-22.4-17.39-4.12-26.19,6.43-29.57,12.18,3.59-3.18,8.19-5.09,13.06-5.34,17.61-.9,28.4,20.23,30.44,24.62,3.12-3.15,7.23-5.14,11.66-5.63,7.08-.96,14.3,1.12,19.79,5.72,9.11,7.64,8.99,18.68,8.85,21.04,9.97,3.79,11.25,10.57,11.37,13.12,9.12-4.53,17.24-5.32,24.16-2.33,10.55,4.55,14.78,16.25,15.55,18.64Z" fill="#002346"></path>
  </g>
  <g>
    <path d="M713.11,325.65l4.88,1.82,2.86-7.76-4.98-1.88c.41-3.09,.12-6.23-.87-9.19l5.07-2.35-3.87-7.53-5.4,2.49c-1.64-1.89-3.59-3.49-5.76-4.74l2.16-5.82-8.08-3.02-2.28,6.05c-2.7-.39-5.45-.27-8.11,.34l-2.35-4.96-7.77,3.29,2.45,5.16c-2.02,1.46-3.75,3.29-5.09,5.39l-4.93-1.85-2.86,7.76,4.89,1.82c-.43,2.65-.33,5.36,.3,7.97l-5.92,2.75,3.87,7.53,5.6-2.6c1.6,2.2,3.6,4.09,5.89,5.57l-2,5.29,8.08,3.02,1.89-5.1c2.69,.54,5.46,.57,8.17,.09l2.21,4.64,7.76-3.29-2.11-4.43c2.56-1.66,4.72-3.87,6.31-6.47Zm-23.68,2.35c-7.48-3.3-10.87-12.05-7.57-19.53,3.3-7.48,12.05-10.87,19.53-7.57,7.38,3.26,10.8,11.83,7.68,19.27-3.25,7.58-12.03,11.09-19.61,7.84,0,0-.02,0-.03-.01h0Z" fill="#93a4fb"></path>
    <path d="M689.22,340.95l-9.15-3.42,2.05-5.4c-2.06-1.39-3.87-3.1-5.38-5.08l-5.68,2.63-4.39-8.54,6.04-2.8c-.52-2.4-.61-4.85-.27-7.28l-4.99-1.86,3.25-8.83,5.04,1.89c1.26-1.87,2.81-3.51,4.6-4.87l-2.5-5.27,8.82-3.74,2.39,5.04c2.45-.52,4.94-.62,7.42-.31l2.32-6.16,9.14,3.42-2.2,5.91c1.94,1.17,3.69,2.61,5.21,4.29l5.51-2.55,4.39,8.54-5.15,2.38c.84,2.74,1.11,5.66,.79,8.51l5.09,1.92-3.25,8.82-4.98-1.86c-1.51,2.35-3.51,4.4-5.82,5.97l2.15,4.52-8.81,3.74-2.26-4.74c-2.48,.39-5,.36-7.47-.07l-1.92,5.19Zm-7.68-4.08l7.01,2.62,1.86-5.02,.48,.09c2.63,.52,5.31,.55,7.96,.09l.43-.08,2.16,4.54,6.71-2.85-2.07-4.35,.42-.27c2.48-1.6,4.6-3.77,6.13-6.29l.25-.4,4.78,1.79,2.47-6.69-4.87-1.84,.06-.45c.4-2.99,.11-6.08-.84-8.94l-.16-.48,4.99-2.31-3.35-6.52-5.29,2.44-.28-.32c-1.61-1.84-3.5-3.4-5.62-4.62l-.42-.24,2.13-5.74-7.01-2.62-2.24,5.95-.45-.07c-2.64-.38-5.3-.27-7.9,.33l-.45,.1-2.31-4.88-6.72,2.85,2.4,5.05-.38,.28c-1.97,1.43-3.63,3.19-4.95,5.23l-.25,.39-4.83-1.8-2.47,6.69,4.79,1.79-.07,.46c-.42,2.59-.32,5.2,.29,7.75l.11,.45-5.81,2.69,3.35,6.52,5.53-2.56,.28,.38c1.57,2.15,3.5,3.98,5.74,5.43l.39,.25-1.97,5.18Zm13.78-7.08c-2.04,0-4.1-.4-6.09-1.25h-.03c-7.76-3.44-11.28-12.54-7.86-20.29,1.66-3.76,4.68-6.64,8.51-8.13,3.83-1.48,8.01-1.39,11.77,.27,7.61,3.36,11.19,12.34,7.97,20.01-2.52,5.87-8.26,9.4-14.27,9.4Zm-5.65-2.31c7.29,3.13,15.75-.25,18.88-7.53,2.97-7.1-.34-15.41-7.39-18.52-3.48-1.54-7.35-1.62-10.9-.25-3.55,1.37-6.34,4.05-7.88,7.53-3.17,7.18,.09,15.61,7.28,18.78h0s-.23,.52-.23,.52l.24-.52Z" fill="#002346"></path>
  </g>
  <g>
    <polyline points="288.79 421.48 314.99 407.81 303.35 383.32" fill="#f6e574"></polyline>
    <path d="M288.79,422.05c-.21,0-.4-.11-.51-.31-.15-.28-.04-.62,.24-.77l25.71-13.42-11.4-24c-.13-.28-.01-.62,.27-.76,.28-.13,.62-.01,.76,.27l11.64,24.49c.13,.28,.02,.61-.25,.75l-26.2,13.67c-.08,.04-.17,.06-.26,.06Z" fill="#002346"></path>
  </g>
  <g>
    <path d="M354.02,407.83s-1.32-10.82-6.22-26.21" fill="#f6e574"></path>
    <path d="M354.02,408.4c-.28,0-.53-.21-.56-.5-.01-.11-1.37-10.95-6.2-26.11-.1-.3,.07-.62,.37-.72,.3-.09,.62,.07,.72,.37,4.86,15.26,6.23,26.21,6.24,26.32,.04,.31-.18,.6-.5,.63-.02,0-.05,0-.07,0Z" fill="#002346"></path>
  </g>
  <g>
    <path d="M317.78,381.62s13.58,10.83,18.78,0" fill="#f6e574"></path>
    <path d="M329.37,387.01c-5.68,0-11.67-4.72-11.95-4.94-.25-.2-.29-.55-.09-.8,.2-.25,.55-.29,.8-.09,.07,.06,7.36,5.79,13.01,4.5,2.12-.49,3.77-1.93,4.91-4.3,.14-.28,.48-.41,.76-.27,.28,.14,.4,.48,.27,.76-1.29,2.7-3.21,4.35-5.68,4.92-.66,.15-1.34,.22-2.02,.22Z" fill="#002346"></path>
  </g>
  <g>
    <line x1="391.62" y1="454.98" x2="382.78" y2="449.76" fill="#f6e574"></line>
    <path d="M391.62,455.55c-.1,0-.2-.03-.29-.08l-8.84-5.22c-.27-.16-.36-.51-.2-.78,.16-.27,.51-.36,.78-.2l8.84,5.22c.27,.16,.36,.51,.2,.78-.11,.18-.3,.28-.49,.28Z" fill="#002346"></path>
  </g>
  <g>
    <line x1="395.98" y1="453.58" x2="387.2" y2="447.18" fill="#f6e574"></line>
    <path d="M395.98,454.15c-.12,0-.23-.04-.33-.11l-8.78-6.4c-.25-.18-.31-.54-.12-.8,.19-.25,.54-.31,.8-.12l8.78,6.4c.25,.18,.31,.54,.12,.8-.11,.15-.29,.23-.46,.23Z" fill="#002346"></path>
  </g>
  <g>
    <line x1="367.75" y1="413.08" x2="361.12" y2="419.77" fill="#f6e574"></line>
    <path d="M361.12,420.34c-.15,0-.29-.05-.4-.17-.22-.22-.23-.58,0-.8l6.62-6.69c.22-.23,.58-.23,.81,0,.22,.22,.23,.58,0,.8l-6.62,6.69c-.11,.11-.26,.17-.4,.17Z" fill="#002346"></path>
  </g>
  <path d="M361.12,512.33h-13.32c-.31,0-.57-.25-.57-.57s.25-.57,.57-.57h13.32c.31,0,.57,.25,.57,.57s-.25,.57-.57,.57Z" fill="#002346"></path>
</svg>
